PathFileType	4	(X/Y/Z)	C:/Users/beibeiliu/ov580/test_trc\sequence.43_training_dense_left.trc
DataRate	CameraRate	NumFrames	NumMarkers	Units	OrigDataRate	OrigDataStartFrame	OrigNumFrames
120	120	21	19	mm	120	1	84
Frame#	Time	ThumbCMC			ThumbMCP			ThumbIP			ThumbTip			IndexMCP			IndexPIP			IndexTip			MiddleMCP			MiddlePIP			MiddleTip			RingMCP			RingPIP			RingTip			PinkyMCP			PinkyPIP			PinkyTip			BackHand1			BackHand2			BackHand3	
		X0	Y0	Z0	X1	Y1	Z1	X2	Y2	Z2	X3	Y3	Z3	X4	Y4	Z4	X5	Y5	Z5	X6	Y6	Z6	X7	Y7	Z7	X8	Y8	Z8	X9	Y9	Z9	X10	Y10	Z10	X11	Y11	Z11	X12	Y12	Z12	X13	Y13	Z13	X14	Y14	Z14	X15	Y15	Z15	X16	Y16	Z16	X17	Y17	Z17	X18	Y18	Z18	
0	0	-151.656	22.0122	46.7441	-139.066	9.09885	23.956	-131.404	3.02918	0.944864	-132.329	-6.2482	-22.8412	-167.17	25.3914	-20.5577	-162.15	14.5185	-42.1665	-156.814	-6.41799	-62.8385	-186.673	21.9393	-26.136	-187.131	11.3629	-51.0348	-185.635	-9.20704	-70.2619	-203.155	16.0362	-20.6355	-204.397	8.69824	-40.0528	-202.632	-5.62895	-58.6509	-222.145	6.99407	-5.47084	-223.698	1.66223	-21.1884	-221.238	-5.44938	-42.6073	-204.227	29.8009	23.4454	-204.048	32.9632	54.2641	-180.085	39.4694	36.0141	
1	0.00833333	-153.385	21.3597	44.3524	-138.666	10.0268	22.3606	-137.022	3.25226	1.16525	-133.428	-6.35057	-22.068	-167.883	24.9836	-22.1396	-163.849	12.0869	-45.8967	-158.827	-8.43251	-62.5063	-186.31	21.2246	-28.7547	-186.646	12.4801	-48.9252	-186.225	-9.63269	-70.2145	-207.862	15.1153	-18.3906	-203.724	7.54459	-40.1039	-202.031	-8.95694	-62.6137	-219.533	7.55313	-1.78788	-224.626	-0.583606	-25.7656	-225.067	-5.66346	-41.473	-206.244	28.215	27.2956	-203.281	34.1956	51.5313	-179.131	38.7373	34.1552	
2	0.0166667	-153.238	19.7501	46.6897	-140.086	8.70317	25.6472	-134.044	1.67806	-1.89919	-133.499	-6.01471	-17.0704	-162.302	23.5702	-25.0397	-163.386	12.044	-43.191	-154.612	-5.38544	-59.7323	-188.446	20.8711	-24.935	-186.52	10.4873	-49.0908	-183.416	-8.1534	-68.9955	-202.596	15.6458	-16.3619	-203.435	3.94737	-43.2693	-202.831	-10.1043	-60.7739	-221.21	7.0873	-2.64877	-224.422	-1.3078	-22.9425	-222.474	-8.29387	-40.27	-206.816	28.021	27.228	-202.044	31.9499	51.7716	-180.303	37.3094	37.5091	
3	0.025	-149.82	19.8331	42.9435	-140.587	7.57664	23.7313	-134.58	0.840811	1.42278	-130.751	-7.08256	-14.948	-164.03	22.2738	-23.2214	-157.891	10.4184	-45.341	-158.657	-6.57914	-57.5476	-185.193	20.4036	-22.8122	-185.641	8.05082	-49.8782	-184.701	-10.9104	-68.0891	-201.626	14.5752	-18.1677	-203.555	3.63153	-41.2865	-200.53	-6.95788	-56.4962	-215.681	6.77854	-0.955197	-219.833	0.802833	-22.7306	-222.749	-6.85004	-40.4758	-204.188	26.2565	25.092	-205.294	30.3862	51.5504	-178.364	37.038	35.4027	
4	0.0333333	-153.085	18.4742	48.0522	-138.517	7.91591	22.9987	-130.46	1.21017	3.49324	-127.443	-6.69142	-16.3954	-160.69	25.0707	-19.0824	-159.089	14.5219	-40.7322	-153.182	-3.89231	-57.7083	-182.412	21.013	-27.5868	-181.594	7.55222	-50.5777	-181.581	-7.83533	-67.0005	-204.839	12.5747	-15.7686	-201.309	4.19836	-41.9078	-200.374	-10.3573	-58.7192	-220.037	4.61611	-1.82105	-217.637	1.24965	-20.4134	-222.032	-6.47005	-39.8499	-204.426	27.3701	26.7891	-199.181	31.9601	51.0836	-178.116	35.6898	36.5572	
5	0.0416667	-152.71	22.1334	44.0237	-139.522	11.9097	23.7589	-133.904	6.13194	-0.161759	-127.891	-2.07419	-18.1879	-160.622	29.7676	-17.6497	-162.754	16.4442	-43.5062	-155.492	1.8257	-58.2563	-186.927	23.8568	-25.6182	-184.174	15.0187	-48.4556	-186.141	-3.61584	-67.5888	-206.084	16.9691	-15.3588	-205.371	8.00653	-40.9445	-203.946	-3.38073	-56.3506	-218.777	10.5831	-1.30889	-219.053	6.20652	-18.1784	-222.985	-3.33978	-37.9106	-201.066	31.4698	30.8581	-201.078	33.673	53.9136	-174.816	39.7155	38.4444	
6	0.05	-153.806	30.1704	39.0854	-140.842	19.67	16.9765	-138.468	12.4932	-1.48163	-135.25	6.46795	-22.5057	-172.248	37.7482	-26.4772	-168.226	30.6334	-45.3342	-167.346	13.8739	-64.4966	-195.206	33.247	-29.324	-192.716	27.2268	-50.4741	-193.713	8.5746	-74.791	-207.777	26.799	-16.7246	-211.783	18.5138	-41.5047	-208.692	6.75082	-64.2188	-226.493	15.9009	-3.78576	-228.332	9.93682	-25.643	-230.397	3.28892	-42.2492	-203.965	36.2004	28.1616	-205.902	39.0321	52.9278	-182.625	47.3336	36.3935	
7	0.0583333	-165.185	33.3751	30.5925	-153.727	22.1204	6.503	-148.59	17.1011	-19.3638	-145.343	9.27866	-37.2043	-189.746	44.8986	-35.9753	-189.074	36.764	-61.2314	-191.338	23.983	-77.7857	-211.253	38.5517	-38.6628	-213.493	32.2554	-60.7177	-211.843	14.8841	-87.4696	-224.249	30.6723	-26.752	-232.048	21.5033	-50.1612	-230.479	11.6225	-69.3576	-241.852	18.3474	-14.1862	-243.042	13.1189	-30.2885	-246.434	3.19714	-52.3035	-222.176	37.415	19.7539	-217.17	40.8288	41.9843	-192.856	51.7865	24.5889	
8	0.0666667	-185.878	26.3789	8.92573	-176.958	13.7673	-14.5266	-174.219	7.2951	-34.7684	-170.519	-0.605384	-57.1984	-215.336	38.395	-49.4229	-220.871	31.5603	-77.1361	-219.811	19.0255	-98.795	-235.653	32.396	-49.7545	-244.448	23.3062	-77.1491	-244.901	9.12318	-98.731	-250.957	22.8012	-40.8418	-257.88	14.6375	-62.4007	-255.382	3.47621	-84.6905	-263.144	10.5448	-21.5833	-266.678	5.14544	-40.8736	-272.271	-5.18159	-61.1484	-240.404	31.1593	3.47635	-235.558	33.9843	30.3649	-214.149	42.7644	8.84932	
9	0.075	-212.314	11.384	-8.76851	-199.755	-3.76421	-33.6244	-196.066	-11.3933	-52.1899	-198.1	-21.7506	-69.9126	-245.079	20.4131	-68.172	-254.951	14.7779	-87.763	-259.664	3.65931	-110.888	-265.237	15.2996	-67.7199	-273.167	7.68474	-91.1133	-278.715	-9.2661	-111.014	-277.411	6.72091	-56.737	-289.052	-3.07039	-73.4619	-288.732	-16.5499	-94.3985	-285.757	-4.15043	-35.2004	-295.975	-14.2998	-54.6212	-298.781	-23.6448	-71.6305	-268.112	16.2641	-10.4905	-259.807	22.0137	10.1521	-238.096	29.0905	-9.31291	
10	0.0833333	-233.766	-7.40441	-27.1853	-225.801	-25.2794	-46.7364	-222.852	-36.0999	-66.8522	-219.908	-46.7844	-85.3398	-274.25	-4.99634	-81.3643	-281.167	-10.6084	-101.995	-291.215	-23.422	-122.886	-293.553	-9.00077	-80.3487	-301.351	-18.01	-100.242	-311.118	-37.3036	-117.874	-307.148	-18.385	-62.4079	-315.019	-27.2393	-83.0523	-316.271	-42.6632	-103.927	-309.988	-25.388	-44.7767	-320.489	-35.8892	-62.9648	-323.115	-48.4724	-78.2688	-290.467	-2.79458	-22.3367	-280.54	3.51119	-4.23339	-263.311	10.0981	-24.8885	
11	0.0916667	-250.184	-25.8637	-32.9461	-237.574	-44.3234	-54.1685	-235.298	-56.1694	-73.2884	-236.866	-68.4897	-88.7569	-289.739	-26.3097	-91.0631	-299.143	-35.7944	-111.596	-306.71	-47.8742	-126.249	-307.987	-30.6311	-85.4526	-320.016	-43.5856	-107.725	-325.39	-66.2946	-125.797	-320.319	-38.4574	-68.0844	-327.249	-49.4451	-89.8534	-332.002	-66.8402	-104.62	-326.215	-45.9257	-55.9386	-332.481	-56.5592	-67.3603	-337.402	-75.5783	-82.3135	-305.973	-19.2658	-32.4485	-296.019	-11.8418	-10.4122	-275.589	-9.07699	-37.4189	
12	0.1	-256.969	-35.8055	-41.2641	-247.2	-56.6327	-56.7555	-238.452	-69.1217	-75.7002	-236.829	-82.1286	-91.992	-295.707	-41.7765	-95.5295	-302.398	-53.3766	-114.634	-307.789	-69.4386	-127.304	-312.162	-47.6902	-90.7081	-322.294	-65.6249	-110.521	-324.313	-87.9713	-121.945	-326.312	-56.2217	-70.7745	-328.734	-71.8269	-94.1563	-327.812	-92.2056	-104.272	-329.811	-64.0158	-51.691	-334.485	-77.597	-67.0322	-330.443	-98.6174	-82.6163	-307.237	-34.6677	-38.2663	-297.653	-23.9924	-12.9321	-282.595	-21.0494	-38.2154	
13	0.108333	-250.997	-39.1415	-37.4226	-238.606	-60.1191	-57.9508	-233.883	-73.6216	-75.9059	-231.404	-89.2678	-90.09	-293.17	-53.3674	-88.5493	-297.463	-67.0433	-109.273	-293.713	-91.911	-123.837	-309.127	-63.1798	-88.9117	-309.936	-83.5714	-107.727	-301.6	-107.634	-114.279	-317.225	-72.9447	-71.6242	-316.887	-90.3829	-87.2441	-304.019	-110.902	-95.3282	-319.805	-81.0253	-54.7317	-317.59	-101.423	-66.8123	-303.129	-114.953	-75.6009	-304.651	-47.696	-35.2843	-297.785	-34.0153	-13.2154	-282.979	-26.1959	-35.1248	
14	0.116667	-239.978	-35.3664	-33.9948	-224.024	-53.9371	-49.8176	-215.947	-67.95	-68.1135	-213.335	-84.0422	-82.1273	-277.282	-63.7276	-85.3879	-273.938	-80.8644	-103.074	-256.15	-100.949	-110.636	-286.478	-74.3718	-80.9153	-279.54	-96.3766	-99.897	-254.267	-118.822	-95.8872	-292.091	-87.734	-65.4143	-281.284	-107.673	-80.522	-258.908	-116.488	-79.4491	-294.355	-98.8881	-47.2634	-283.957	-112.983	-59.1896	-255.036	-119.187	-60.5153	-292.029	-59.7448	-24.9992	-284.201	-45.5838	-7.90129	-275.765	-34.9061	-31.0852	
15	0.125	-219.114	-23.0762	-24.0206	-199.517	-37.5065	-42.7802	-188.531	-49.1858	-63.2369	-179.395	-61.3943	-72.5439	-242.496	-57.2167	-77.4711	-229.085	-72.8851	-95.9837	-201.852	-87.9501	-92.0472	-249.249	-75.4755	-71.0472	-226.15	-92.269	-89.1225	-200.387	-96.652	-75.9376	-249.482	-88.5621	-56.2388	-227.999	-100.001	-68.6982	-203.902	-97.3868	-56.1932	-248.599	-99.0716	-39.4019	-228.335	-104.553	-50.3455	-205.384	-92.9224	-41.9886	-259.878	-61.2388	-21.0462	-259.596	-45.7322	1.14739	-254.27	-31.5526	-25.8319	
16	0.133333	-204.941	2.54908	-11.2014	-180.841	-4.52449	-34.6109	-169.036	-12.1923	-49.4669	-156.553	-26.1215	-65.4945	-213.241	-37.3623	-65.1158	-189.736	-50.3173	-80.6379	-164.036	-48.7698	-73.5518	-211.29	-57.9406	-58.7263	-182.714	-66.8599	-70.737	-161.746	-55.8887	-50.6763	-205.642	-67.4665	-48.2467	-178.086	-71.4683	-50.9227	-166.049	-54.0084	-29.7386	-203.026	-78.2855	-30.4767	-181.717	-75.254	-34.8221	-173.184	-55.5198	-21.2378	-232.07	-47.141	-7.43752	-237.066	-33.9183	9.21205	-234.324	-20.1092	-14.6678	
17	0.141667	-201.402	26.5689	0.890477	-178.206	27.8376	-15.2593	-163.127	24.0335	-33.5211	-146.789	15.7767	-49.834	-196.158	-9.48849	-53.4673	-167.869	-16.2696	-65.3483	-146.185	-6.29973	-53.8633	-184.1	-31.2652	-49.5759	-156.715	-26.9055	-53.6401	-147.058	-10.4356	-24.0135	-177.667	-42.0541	-33.5927	-152.571	-33.6985	-32.7441	-155.028	-11.5297	-12.2947	-176.847	-47.7688	-16.3368	-153.454	-35.7488	-14.9896	-157.676	-18.115	-2.00207	-213.815	-29.0557	0.875971	-221.452	-20.6722	22.4288	-222.773	-4.26328	0.539841	
18	0.15	-202.058	49.0358	19.4574	-180.413	54.8134	5.6613	-162.353	56.4863	-16.5494	-147.507	48.4815	-27.3077	-187.898	17.7066	-33.9452	-161.129	19.9163	-47.8435	-140.586	30.7196	-29.7052	-174.68	0.590132	-30.3628	-142.803	10.0534	-28.4742	-142.728	23.4981	-3.48492	-165.56	-10.1117	-14.8933	-140.608	4.80689	-8.83724	-153.223	20.918	14.1027	-161.339	-17.4346	1.80656	-144.778	2.27798	4.58412	-155.937	16.125	18.518	-203.559	-6.29409	18.7182	-214.881	-1.86313	41.7202	-215.094	15.4818	19.8475	
19	0.158333	-202.901	62.3103	43.2977	-182.613	76.4877	25.8195	-167.184	77.6061	8.04395	-149.12	75.5954	-6.89844	-185.45	34.7827	-17.5986	-163.472	41.9547	-27.9846	-144.726	56.2825	-7.58152	-169.764	22.2512	-13.4777	-145.521	38.4166	-11.4979	-147.548	47.415	18.0341	-157.754	11.8847	2.36187	-141.82	29.4481	8.81642	-155.71	41.54	33.834	-156.931	2.24015	20.4507	-141.016	22.4945	25.0584	-157.396	34.0168	42.3695	-200.528	7.03796	34.4327	-210.03	14.5253	62.0997	-217.221	34.3367	38.6257	
20	0.166667	-205.819	66.1805	63.7681	-184.959	81.564	41.1811	-170.16	85.083	22.5859	-151.569	83.1942	8.44811	-191.67	43.3667	2.71736	-164.005	51.5319	-9.91178	-150.106	67.0521	11.8827	-173.157	29.1739	5.56624	-149.475	47.8639	3.38329	-153.572	57.5196	35.0556	-161.893	20.5908	19.0625	-142.673	41.3538	28.0971	-158.294	49.7149	47.756	-156.913	12.4213	34.8849	-143.746	32.2776	41.0058	-161.459	43.3547	56.2724	-198.626	13.7474	51.9842	-208.79	17.8455	74.6025	-216.157	34.2756	53.5229	
